<?xml version="1.0" encoding="utf-8"?>
<!-- Generator: Adobe Illustrator 25.0.0, SVG Export Plug-In . SVG Version: 6.00 Build 0)  -->
<svg version="1.1" id="Layer_1" xmlns="http://www.w3.org/2000/svg" xmlns:xlink="http://www.w3.org/1999/xlink" x="0px" y="0px"
	 viewBox="0 0 500.6 305.7" style="enable-background:new 0 0 500.6 305.7;" xml:space="preserve">
<style type="text/css">
	.st0{fill:#01C933;}
	.st1{fill:#072F6E;}
</style>
<path class="st0" d="M226.4,37.8c0-1.7,0-3.3,0-5c0-0.6,0.2-0.8,0.8-0.8c4.5,0,9,0,13.4,0c1,0,0.8,0.6,0.8,1.2c0,8.4,0,16.7,0,25.1
	c0,0.2,0,0.5,0,0.7c0,0.4-0.2,0.9,0.5,1c0.6,0,0.7-0.3,0.8-0.8c0.7-2.7,1.6-5.2,2.9-7.7c6.1-11.6,15.5-19,28.4-21.3
	c20.7-3.7,39.8,9,45.2,28.7c0.2,0.6,0.2,1.1,1,1c0.8-0.1,0.4-0.8,0.4-1.1c0-14.3,0-28.5,0-42.8c0-1.2,0.3-1.4,1.4-1.4
	c4.2,0.1,8.3,0.1,12.5,0c0.9,0,1.2,0.2,1.2,1.2c-0.1,5,0,10.1-0.1,15.1c0,1.1,0.3,1.3,1.3,1.3c9.8,0,19.7,0,29.5,0
	c1,0,1.2,0.3,1.2,1.3c-0.1,4.4-0.1,8.9,0,13.3c0,1-0.2,1.3-1.3,1.3c-9.8-0.1-19.6,0-29.4-0.1c-1,0-1.4,0.2-1.4,1.3
	c-0.2,6.8-0.1,13.5-0.1,20.2c0,9.7,7.2,18.7,16.8,20.3c6.2,1.1,12.6,1.4,18.7-0.9c7.9-3.1,12.5-9.1,13.4-17.6
	c0.4-3.7,0.2-7.5,1.2-11.1c4.2-15.4,13.9-25.6,29.4-29.3c14.3-3.4,26.9,0.4,37.4,10.8c5.9,5.8,9.4,13,10.7,21.1
	c3.4,20.8-9.8,40.7-30.6,45c-16,3.3-29.4-1.8-39.7-14.5c-0.5-0.6-0.7-1-1.4-0.1c-6.5,8.4-15.1,13.7-25.7,15.1
	c-12.2,1.7-23.1-1.6-32.3-9.9c-5.8-5.2-9.6-11.6-11.6-19.1c-0.2-0.9-0.7-0.9-1.4-1c-0.7,0-1.1,0.2-1.3,1
	c-4.6,15.4-14.6,25.3-30.4,28.6c-20.4,4.3-40.4-8.2-45.9-28.3c-0.1-0.3-0.2-0.6-0.3-0.9c-0.1-0.4-0.5-0.4-0.8-0.4
	c-0.4,0-0.4,0.3-0.4,0.6c0,0.3,0,0.6,0,0.8c0,6.9,0,13.7,0,20.6c0,17.9-11.5,33.3-28.8,38.3c-5.7,1.7-11.4,1.8-17.3,1.2
	c-7.2-0.8-13.9-2.9-20.2-6.5c-3-1.7-5.8-3.9-8.3-6.2c-0.5-0.4-0.7-0.9-0.7-1.5c0-5.5,0-11,0-16.5c0-0.3-0.2-0.8,0.3-0.9
	c0.4-0.1,0.8,0,1.1,0.4c7.2,8,16.4,12.4,27,14c6.1,0.9,12.1,0.6,17.8-2c6.6-3,11.4-7.7,13.4-14.8c0.9-3,0.6-6.2,0.6-9.3
	c0-0.3,0-0.5-0.4-0.6c-0.4,0-0.6,0.2-0.8,0.5c-1.7,3.1-4.3,5.4-7.2,7.3c-5.5,3.5-11.6,5.1-18.1,4.9c-16.9-0.5-32.4-13.1-36.2-29.6
	c-3.6-15.5,0.5-28.9,12.3-39.6c5.5-5.1,12.2-8.1,19.6-9.2c11-1.7,21.1,0.7,30.1,7.4c0.2,0.1,0.3,0.2,0.5,0.3
	C226.2,37.8,226.2,37.8,226.4,37.8z M280.1,90.3c3.2,0,5.5,0.1,7.7-0.3c12-2.2,18.9-12.7,17.5-23.4c-1.1-8.2-5.5-13.9-13-17
	c-5.8-2.4-12-2.2-17.9-1.3C263,49.9,255.5,59.9,256.6,71c0.8,7.9,4.8,13.6,11.9,17.1C272.5,90.1,276.7,90.5,280.1,90.3z M423.3,90.3
	c3.1,0,5.4,0.1,7.6-0.3c12-2.2,18.9-12.7,17.6-23.3c-1-7.9-5.1-13.6-12.3-16.9c-6-2.8-12.4-2.5-18.7-1.6
	c-11.4,1.7-18.9,11.9-17.7,22.9c0.8,7.8,4.8,13.4,11.8,16.9C415.5,90.1,419.8,90.5,423.3,90.3z M201.8,90.2c2-0.1,4,0.1,6-0.2
	c12-1.6,20-12.3,18.4-23.7c-1.1-8.1-5.5-13.7-13-16.9c-5.5-2.3-11.3-1.9-17-1.4c-10.4,1-18.2,9.6-18.7,19.6
	c-0.5,8.5,3.8,16.3,11.4,20.2C192.9,89.9,197.3,90.5,201.8,90.2z"/>
<path class="st1" d="M60.2,165.7c10.1-14.2,37-13.7,45.3,2.2c2.6-3.9,6-7,10.1-9.2c5.3-2.9,11.2-3.4,17.1-3.1
	c4.8,0.3,9.5,1.3,13.6,4c7.3,4.6,11.7,11.2,13,19.8c0.4,2.3,0.5,4.7,0.5,7c0,15.4,0,30.8,0,46.1c0,1-0.2,1.3-1.2,1.3
	c-4.2,0-8.4,0-12.6,0.1c-1.2,0-1.4-0.4-1.4-1.5c0-14.7,0.1-29.3,0-44c0-5.2-1.4-9.9-4.9-13.9c-2.7-3.1-6.2-4.2-10.2-4.5
	c-11.7-0.7-17.9,8-18.8,16c-0.1,1-0.2,2-0.2,3c0,14.5,0,28.9,0,43.4c0,1-0.2,1.3-1.2,1.2c-4.3-0.1-8.6-0.1-12.8,0
	c-0.9,0-1.1-0.2-1.1-1.1c0-15.2,0.1-30.4,0-45.5c0-5.4-1.9-10.2-6.4-13.6c-4-3-8.7-3.7-13.5-3.2c-8,0.8-13.9,7.3-14.9,15.2
	c-0.2,1.9-0.4,3.8-0.4,5.7c0,13.8,0,27.6,0,41.5c0,1-0.2,1.3-1.2,1.2c-4.3-0.1-8.6,0-12.9,0c-0.8,0-1-0.2-1-1c0-25.5,0-51,0-76.5
	c0-0.8,0.2-1,1-1c4.4,0,8.8,0,13.2,0c0.8,0,1,0.2,1,1C60.2,159.4,60.2,162.4,60.2,165.7z"/>
<path class="st1" d="M182.4,164c16.7-13.2,39.8-11.1,53.7,3.5c13.7,14.3,14.4,36.9,1.6,52.5c-12.2,14.9-36.3,20.2-55.3,5.5
	c0,0.6,0,1,0,1.5c0,14,0,28.1,0,42.1c0,1.6,0,1.6-1.6,1.6c-4.1,0-8.2,0-12.2,0c-1,0-1.2-0.2-1.2-1.2c0-23.2,0-46.4,0-69.7
	c0-14.4,0-28.9,0-43.3c0-1,0.2-1.3,1.2-1.3c4.3,0.1,8.6,0.1,12.8,0c0.8,0,1.1,0.2,1.1,1.1C182.4,158.7,182.4,161.2,182.4,164z
	 M208.4,173.4c-3.3,0.1-5.5-0.1-7.7,0.3c-11.3,2-18.8,11.8-17.7,22.8c0.8,8.2,5,14,12.4,17.4c6.1,2.8,12.7,2.5,19.1,1.4
	c11-1.7,18.5-12.1,17.2-23c-0.9-7.6-4.8-13.1-11.5-16.6C216.2,173.7,211.8,173.2,208.4,173.4z"/>
<path class="st0" d="M311.8,228.9c-6.2,3.6-13,5.3-20.2,5.2c-18.6-0.1-34.9-13.7-38.3-32c-4.1-21.5,9.7-41.7,30.5-46.1
	c9.4-2,18.5-0.7,27.1,3.9c0.7,0.4,1.2,0.4,2,0c5.5-3,11.3-4.6,17.6-4.7c1.1,0,1.3,0.3,1.3,1.3c0,11.2,0,22.4,0,33.6
	c0,1.2,0,2.3,0,3.5c-0.2-1.7-0.2-3.4-0.5-5.1c-2.1-11.9-8.3-21-18.4-27.5c-0.7-0.4-1.1-0.4-1.8,0c-5,3.1-9.1,7-12.3,11.9
	c-0.5,0.7-0.3,1,0.5,1.1c2.2,0.3,4.3,1,6.2,2.1c7.8,4.4,11.6,11.1,11.1,20.1c-0.5,9.6-7.8,17.7-17.3,19.3c-1,0.2-0.9,0.4-0.4,1.1
	c1.4,2.1,3,4.1,4.8,5.9C305.9,225,308.7,227.1,311.8,228.9z M297.9,173.7c-0.3-0.1-0.5-0.2-0.8-0.2c-3.9,0-7.8-0.4-11.7,0.2
	c-11.9,2-19.5,12.7-17.5,24.6c1.4,8.6,8.2,15.5,16.7,17c4,0.7,8,0.4,12.1,0.4c0.4,0,0.8-0.2,1.2-0.2
	C290.1,201.6,290.1,187.7,297.9,173.7z"/>
<path class="st1" d="M376,215.6c4.5,0.2,8.9-0.3,12.9-2.4c4.1-2.1,7.3-5.3,9.2-9.5c0.4-0.8,0.6-0.9,1.3-0.4c3.7,2.3,7.3,4.5,11,6.7
	c0.8,0.5,1,0.9,0.5,1.7c-5.5,10.7-14,17.8-25.8,20.7c-20.2,5-40-6.8-46.2-25.7c-7.1-21.9,6.4-45.3,28.9-50
	c17.4-3.7,35.2,5.1,43,21.2c0.3,0.7,0.3,1-0.4,1.4c-3.8,2.3-7.5,4.6-11.2,7c-0.7,0.4-0.9,0.3-1.3-0.4c-3.9-7.9-10.4-11.8-19.2-11.9
	c-3-0.1-6.1-0.2-9.1,0.2c-8.8,1.1-16.2,8.1-17.6,16.8c-2,12,5.4,22.4,17.5,24.4C371.9,215.7,374,215.7,376,215.6z"/>
<path class="st1" d="M416.6,168.2c0-9.1,0-18.1,0-27.2c0-0.9,0.2-1.2,1.2-1.2c4.3,0.1,8.6,0,12.9,0c0.9,0,1,0.2,1,1.1
	c0,5.1,0,10.1,0,15.2c0,1,0.2,1.3,1.2,1.3c9.8,0,19.6,0,29.4-0.1c1.2,0,1.4,0.3,1.4,1.5c-0.1,4.3-0.1,8.6,0,12.8
	c0,1.3-0.4,1.5-1.5,1.4c-9.8,0-19.5,0-29.3-0.1c-1,0-1.2,0.3-1.2,1.3c0,6.5-0.1,13.1-0.1,19.6c0,11.1,7.3,19.8,18.3,21.4
	c4.3,0.6,8.6,0.6,12.9-0.1c0.7-0.1,0.9,0,0.9,0.8c0,5.5,0,10.9,0,16.4c0,0.6-0.3,0.8-0.8,0.9c-3,0.6-6,0.8-9.1,0.6
	c-7.9-0.5-15.1-3-21.4-7.8c-8.4-6.4-13.6-14.9-15.4-25.4c-0.4-2.3-0.5-4.6-0.5-6.9C416.6,185.2,416.6,176.7,416.6,168.2z"/>
<path class="st1" d="M22.3,194.7c0-12.7,0-25.3,0-38c0-1,0.2-1.3,1.2-1.3c4.3,0.1,8.5,0.1,12.8,0c0.8,0,1.1,0.2,1.1,1
	c0,25.4,0,50.9,0,76.3c0,0.8-0.2,1.1-1,1.1c-4.3,0-8.6,0-12.9,0c-0.9,0-1.1-0.2-1.1-1.1C22.3,220.1,22.3,207.4,22.3,194.7z"/>
<path class="st1" d="M311.8,228.9c-3-1.8-5.8-3.9-8.3-6.5c-1.8-1.8-3.4-3.8-4.8-5.9c-0.4-0.7-0.5-1,0.4-1.1
	c9.6-1.6,16.9-9.6,17.3-19.3c0.5-9-3.3-15.7-11.1-20.1c-1.9-1.1-4-1.8-6.2-2.1c-0.8-0.1-0.9-0.4-0.5-1.1c3.3-4.8,7.4-8.8,12.3-11.9
	c0.7-0.4,1.2-0.4,1.8,0c10.1,6.5,16.3,15.7,18.4,27.5c0.3,1.7,0.3,3.4,0.5,5.1c0,0.8,0,1.5,0,2.3c0,0.2-0.1,0.5-0.1,0.7
	c-0.1,5.5-1.5,10.7-4,15.6c-3.5,7.1-8.8,12.7-15.6,16.7L311.8,228.9L311.8,228.9z"/>
<path class="st1" d="M334.1,267.6c0-4.3,0-8.3,0-12.3c0-2.6,0.7-3.3,3.3-3.3c1,0,2.1-0.2,2.7,0.5c0.7,0.6,0.5,1.7,0.5,2.7
	c0,11.8,0,23.6,0,35.3c0,0.8-0.2,1.2-1.2,1.2c-0.9,0-1.4,0-2.3,0c-1.6,0-2.7-0.5-3.2-2.2c-3.3,2.3-6.9,3.2-10.8,2.5
	c-3.2-0.6-5.8-2.1-7.9-4.5c-4.2-5-4.5-12-0.6-17.2c1.5-1.9,3.3-3.4,5.6-4.4c2.3-1,4.7-1.3,7.1-1C329.8,265.1,332,266,334.1,267.6z
	 M325.9,284.9c0.5,0,1.3,0,2-0.2c2.9-0.5,5-2.8,5.2-5.7c0.2-2.9-1.6-5.6-4.4-6.5c-1.4-0.5-2.9-0.3-4.4-0.2c-3.8,0-6.8,3.9-5.9,7.6
	C319.2,283.1,321.7,284.9,325.9,284.9z"/>
<path class="st1" d="M367.1,288.8c-5.3,4.6-12.4,4.3-17.1,1c-4.5-3.2-6.7-8.8-5.5-14.2c1.2-5.4,5.6-9.7,11.1-10.6
	c3.9-0.7,7.5,0.1,10.7,2.6c0.7,0.5,0.9,0.3,1.2-0.3c1-1.5,2.5-2.3,4.3-2.5c0.9-0.1,1.1,0.1,1.1,1.1c0,7.5,0,14.9,0,22.4
	c0,0.7,0,1.4,0,2c0,1.5,0,1.6-1.5,1.3C369.5,291.4,368.1,290.3,367.1,288.8z M358.2,272.2c-0.6,0-0.9,0-1.3,0c-2.8,0-5.1,1.6-6,4.3
	c-0.9,2.6-0.1,5.2,2,7c1.8,1.5,4,1.6,6.1,1.4c6-0.4,7.6-6.2,5.4-9.7C362.9,272.8,360.6,272,358.2,272.2z"/>
<path class="st1" d="M240.5,264.8c7.6,0,13.7,6.2,13.7,13.8c0,7.6-6.2,13.8-13.8,13.7c-7.7,0-13.7-6.2-13.7-13.9
	C226.7,270.8,232.8,264.8,240.5,264.8z M240.4,272.2c-0.4,0-0.8,0-1.2,0c-2.7,0-5,1.6-5.9,4.1c-0.9,2.5-0.2,5.2,1.8,6.9
	c2.2,1.9,4.9,1.9,7.6,1.4c2.8-0.5,4.9-2.9,5-5.5c0.2-3.4-1.5-5.9-4.5-6.8C242.3,272.2,241.4,272.3,240.4,272.2z"/>
<path class="st1" d="M436.8,278.2c0.2,6.8-5.6,13.7-13.8,13.7c-7.5,0-13.6-6.1-13.6-13.7c0-7.7,6.1-13.8,13.8-13.8
	C431.4,264.4,437.2,271.5,436.8,278.2z M423,284.5c0.5,0,0.8,0,1.2,0c3.1,0,5.7-2.2,6.3-5.2c0.5-2.8-1-5.7-3.8-6.9
	c-1.6-0.7-3.3-0.7-4.9-0.6c-4.8,0.4-7.6,5.2-5.3,9.4C417.9,283.8,420.3,284.6,423,284.5z"/>
<path class="st1" d="M447,266.6c3.4-3,7.2-3.2,11.1-1.5c3.5,1.5,5.4,4.4,5.6,8.2c0.2,5.9,0,11.7,0.1,17.6c0,0.7-0.2,1-0.9,0.9
	c-1-0.1-2,0-3,0c-2,0-3-0.9-3-3c0-4.4,0-8.9,0-13.3c0-2.4-1.1-4.2-3.1-4.8c-3.1-1-6.3,1-6.4,4.3c-0.1,5.2-0.1,10.5-0.1,15.7
	c0,0.9-0.2,1.3-1.2,1.2c-1-0.1-2,0-3,0c-1.6,0-2.7-1-2.7-2.7c0-7.9,0-15.7,0-23.6c0-0.7,0.2-0.9,0.9-0.9c1,0.1,2.1,0,3.1,0
	C446,264.8,446.4,265.1,447,266.6z"/>
<path class="st1" d="M274.4,289.6c-3.4,3-7.2,3.1-11,1.5c-3.8-1.6-5.7-4.8-5.8-8.9c-0.1-4.8,0-9.7,0-14.5c0-1.9,1-2.9,3-2.9
	c1,0,1.9,0,2.9,0c1.1,0,1.1,0.3,1.1,1.2c0,4.9,0,9.7,0,14.6c0,3.1,1.8,5.1,4.6,5.1c2.9,0,4.9-2.1,5-5.1c0-4.2,0-8.5,0-12.7
	c0-2.2,0.9-3.1,3-3.1c1.3,0,2.7-0.3,3.4,0.5c0.6,0.7,0.5,2.1,0.5,3.3c0,7.4,0,14.8,0,22.2c0,0.7-0.2,1.1-1.1,1.1c-0.7,0-1.4,0-2,0
	C275.7,291.9,275.2,291.6,274.4,289.6z"/>
<path class="st1" d="M291.7,266.6c3.4-3,7.2-3.2,11-1.6c3.8,1.6,5.7,4.8,5.8,9c0,5.6,0,11,0,16.6c0,1-0.3,1.3-1.3,1.3
	c-1,0-2.4,0-3.3,0c-1.9,0-2.4-1-2.4-2.9c0-4.3,0-8.5,0-12.8c0-0.7,0-1.4-0.2-2.1c-0.5-2.2-2.2-3.4-4.5-3.5c-2-0.1-4.1,1.2-4.8,3.6
	c-0.2,0.6-0.3,1.3-0.2,2c0,4.9,0,9.8,0,14.7c0,0.8-0.3,1.1-1.1,1.1c-1,0-2.1,0-3.1,0c-1.5,0-2.6-1-2.6-2.5c0-7.9,0-15.8,0-23.7
	c0-0.7,0.2-0.9,0.9-0.9c1,0.1,1.9,0.1,2.9,0C290.3,264.7,291.3,265.2,291.7,266.6z"/>
<path class="st1" d="M212.2,281.2c0-3.2,0-6.4,0-9.6c0-0.8-0.2-1.1-1.1-1.1c0,0-0.1,0-0.1,0c-1.2,0-2.9,0.1-3.2-0.3
	c-0.5-0.3-0.4-2.2-0.4-3.5c0-2.1,0-2.1,2.1-2.1c2.9,0,2.9,0,2.9-2.8c0-7,5.7-10.3,11.5-10.1c0.4,0,0.7,0.2,0.7,0.6
	c0,1.7,0,3.4,0,5.2c0,0.7-0.4,0.6-0.9,0.6c-2.4,0.2-3.9,1.2-4.5,3.1c0,0.1-0.1,0.2-0.1,0.3c-0.6,3-0.6,3,2.4,3c0.3,0,0.5,0,0.8,0
	c1,0,3-0.3,3,1c0,1.1,0,1.6,0,2.8c0,1.6-0.4,1.9-1.5,2c-0.9,0-2.4,0-3.3,0c-1.2,0-1.6,0.2-1.5,1.5c0.1,5.6,0,11.2,0,16.8
	c0,2.1-0.1,3.1-2.2,3.1c-0.9,0-2.6,0-3.5,0c-0.8,0-1-0.5-1-1.3C212.3,287.4,212.2,284.4,212.2,281.2z"/>
<path class="st1" d="M389.1,270.6c-1.6,0-3.2,0-4.8,0c-0.3,0-0.8-0.1-0.8,0.5c0.1,2.6-0.3,5.3,0.2,7.9c0.7,3.9,3.6,6.2,7.7,6.3
	c0.7,0,1.4,0,2.1-0.1c0.9-0.1,1.1,0.2,1,1c-0.1,1.4-0.1,2.9,0,4.3c0,0.8-0.1,1.1-1,1.2c-7.5,1-14-3.2-16.1-10.5
	c-0.3-1.2-0.5-2.3-0.5-3.5c0-6.2,0-12.4,0-18.6c0-0.9,0.2-1.2,1.1-1.1c1.5,0.1,3,0.1,4.4,0c0.9,0,1.1,0.3,1,1.1
	c-0.1,1.4,0.1,2.9,0,4.3c-0.1,1.2,0.4,1.4,1.5,1.4c2.8-0.1,5.7,0,8.5,0c0.8,0,1.2,0.1,1.1,1.1c-0.1,1.3-0.1,2.6,0,4
	c0,0.6-0.2,0.8-0.8,0.8C392.2,270.6,390.7,270.6,389.1,270.6z"/>
<path class="st0" d="M311.9,228.9c6.8-4.1,12.1-9.6,15.6-16.7c2.4-4.9,3.9-10.1,4-15.6c0-0.2,0.1-0.5,0.1-0.7c0,5.9,0,11.7,0,17.6
	c0,6.5,0,13.1,0,19.6c0,0.6,0.1,1.1-0.9,1.1C324,234,317.7,232.3,311.9,228.9z"/>
<path class="st1" d="M405.8,278.5c0,4.2,0,8.3,0,12.5c0,0.8-0.2,1-1,1c-1.2-0.1-2.3,0-3.5,0c-1.5,0-2.4-0.9-2.6-2.3
	c-0.1-0.4-0.1-0.7-0.1-1.1c0-7.5,0-15,0-22.5c0-1,0.3-1.3,1.3-1.2c1.6,0.1,3.3,0.1,4.9,0c0.8,0,1,0.2,1,1
	C405.8,270,405.8,274.2,405.8,278.5z"/>
<path class="st1" d="M29.8,147.3c-4.4,0-7.5-3-7.5-7.2c0-4.1,3.2-7.3,7.4-7.3c4.3,0,7.6,3.1,7.7,7.3
	C37.4,144.2,34.1,147.3,29.8,147.3z"/>
<path class="st1" d="M402.3,254.4c2.1,0,3.5,1.3,3.5,3.3c0,2-1.5,3.4-3.6,3.4c-2,0-3.5-1.4-3.5-3.3
	C398.7,255.9,400.2,254.4,402.3,254.4z"/>
<path class="st1" d="M475.7,142.2c-0.3,1-0.5,2.1-0.8,3.1c-0.1,0.5-0.3,0.8-1,0.8c-0.7,0-0.8-0.4-0.9-0.9c-0.3-1-0.5-2-1-3
	c0,1.1,0,2.1,0,3.2c0,0.6-0.3,0.7-0.8,0.7c-0.5,0-0.8-0.1-0.8-0.7c0-1.6,0-3.3,0-4.9c0-0.2-0.1-0.5,0.2-0.5c0.7-0.1,1.4-0.1,2.1,0
	c0.4,0.1,0.4,0.6,0.5,1c0.2,0.7,0.4,1.5,0.6,2.2c0,0,0.1,0,0.2,0.1c0.2-0.9,0.4-1.7,0.7-2.6c0.4-1.3,1.4-0.6,2.2-0.7
	c0.8-0.1,0.6,0.6,0.6,1c0,1.5,0,2.9,0,4.4c0,0.7-0.3,0.8-0.9,0.8c-0.6,0-0.8-0.2-0.7-0.8c0-1,0-2.1,0-3.1
	C475.8,142.2,475.7,142.2,475.7,142.2z"/>
<path class="st1" d="M466.8,139.8c0.7,0,1.4,0,2,0c0.5,0,0.9,0,0.9,0.7c0,0.7-0.3,0.9-0.8,0.8c-1-0.2-1.3,0.3-1.2,1.3
	c0.1,0.9,0,1.8,0,2.6c0.1,0.8-0.3,0.8-0.9,0.8c-0.6,0-1,0-1-0.8c0.1-1,0-1.9,0-2.9c0.1-0.8-0.2-1.2-1.1-1c-0.6,0.1-0.9-0.1-0.9-0.8
	c0-0.8,0.4-0.7,0.9-0.7C465.4,139.8,466.1,139.8,466.8,139.8z"/>
</svg>
