<?xml version="1.0" encoding="utf-8"?>
<!-- Generator: Adobe Illustrator 25.0.0, SVG Export Plug-In . SVG Version: 6.00 Build 0)  -->
<svg version="1.1" id="Layer_1" xmlns="http://www.w3.org/2000/svg" xmlns:xlink="http://www.w3.org/1999/xlink" x="0px" y="0px"
	 viewBox="0 0 403.2 170.6" style="enable-background:new 0 0 403.2 170.6;" xml:space="preserve">
<style type="text/css">
	.st0{fill-rule:evenodd;clip-rule:evenodd;fill:#75777B;}
	.st1{fill-rule:evenodd;clip-rule:evenodd;fill:#AC43D9;}
	.st2{fill-rule:evenodd;clip-rule:evenodd;fill:#0F98E8;}
	.st3{fill-rule:evenodd;clip-rule:evenodd;fill:#00E32C;}
</style>
<path class="st0" d="M147.1,34.3c-3.9,0.1-7.7-1.4-10.5-4.2c-2.8-2.7-4.3-6.5-4.2-10.4c-0.1-3.9,1.5-7.7,4.2-10.4
	c2.8-2.8,6.6-4.3,10.5-4.2c2.6-0.1,5.2,0.6,7.5,1.8c2.1,1.2,3.9,3,5.2,5.1l-5,2.8c-1.5-2.8-4.5-4.4-7.7-4.2c-2.3,0-4.6,0.9-6.2,2.6
	c-1.7,1.7-2.6,4-2.6,6.4c-0.1,2.4,0.9,4.7,2.6,6.4c1.6,1.7,3.9,2.6,6.2,2.6c1.6,0,3.1-0.4,4.5-1.1c1.3-0.7,2.4-1.8,3.1-3.1l5,2.8
	c-1.3,2.1-3.1,3.9-5.3,5.1C152.2,33.6,149.6,34.3,147.1,34.3L147.1,34.3z M170.2,34.3c-1.9,0.1-3.7-0.5-5.2-1.7
	c-1.3-1.1-2-2.7-2-4.3c0-1.5,0.6-2.9,1.7-3.9c1.3-1,2.9-1.5,4.5-1.5h4c1.1,0,1.6-0.5,1.6-1.4c-0.1-0.6-0.4-1.2-0.9-1.5
	c-0.8-0.5-1.7-0.8-2.6-0.7c-1.7-0.1-3.3,0.9-4,2.5l-3.6-2.3c0.6-1.4,1.7-2.5,2.9-3.3c1.4-0.9,3.1-1.3,4.7-1.3
	c2.3-0.1,4.6,0.7,6.2,2.3c1.4,1.5,2.2,3.4,2.2,5.5v11.2H175v-1.3C174,33.7,172.3,34.3,170.2,34.3L170.2,34.3z M170.8,30.3
	c1.1,0.1,2.1-0.3,2.9-1c0.7-0.6,1.1-1.6,1.1-2.5v-0.2h-4.6c-0.5,0-1,0.2-1.4,0.5c-0.7,0.7-0.7,1.8,0,2.5c0.1,0.1,0.1,0.1,0.2,0.2
	C169.5,30.1,170.2,30.3,170.8,30.3L170.8,30.3z M196.4,34.1h-3.5c-1.9,0.1-3.7-0.5-5.1-1.7c-1.3-1.3-1.9-3.1-1.8-4.9v-7.9h-3.1v-3.8
	h0.1c1.1,0,2.2-0.5,2.9-1.4c0.9-1,1.3-2.2,1.2-3.5v-0.1h3.9v4.4h5.3v4.3h-5.3v7.2c-0.2,1.3,0.7,2.5,2.1,2.7c0.2,0,0.5,0,0.7,0h2.6
	L196.4,34.1L196.4,34.1z M207,34.3c-1.9,0.1-3.7-0.5-5.2-1.8c-1.3-1.1-2-2.7-2-4.3c0-1.5,0.6-2.9,1.7-3.9c1.3-1,2.9-1.5,4.5-1.5h4
	c1,0,1.6-0.5,1.6-1.4c-0.1-0.6-0.4-1.2-0.9-1.5c-0.8-0.5-1.7-0.8-2.6-0.7c-1.7-0.1-3.3,0.9-4,2.5l-3.6-2.3c0.6-1.4,1.7-2.5,2.9-3.3
	c1.4-0.9,3.1-1.3,4.7-1.3c2.3-0.1,4.6,0.7,6.2,2.3c1.4,1.5,2.2,3.4,2.2,5.5v11.2h-4.7v-1.3C210.9,33.7,209.2,34.3,207,34.3L207,34.3
	z M207.7,30.3c1.1,0.1,2.1-0.3,2.9-1c0.7-0.6,1.1-1.6,1.1-2.5v-0.2H207c-0.5,0-1,0.2-1.4,0.5c-0.7,0.7-0.7,1.8-0.1,2.5
	c0.1,0.1,0.1,0.1,0.2,0.2C206.3,30.2,207,30.4,207.7,30.3L207.7,30.3z M229,34.2h-1c-4.5,0-6.7-2.3-6.7-7V5.6h5V27
	c0,1.6,0.9,2.3,2.6,2.3L229,34.2L229,34.2z M238.6,43.3h-5.9l6.8-12.5l-7.7-15.5h5.6l5,10.4l5.2-10.4h5.6L238.6,43.3L238.6,43.3z
	 M261.6,34.3c-1.7,0.1-3.3-0.4-4.7-1.3c-1.1-0.8-2-2-2.4-3.4l4.4-1.7c0.3,1.2,1.5,2,2.8,1.9c1.5,0,2.3-0.5,2.3-1.5s-0.7-1.5-2.2-1.7
	c-1.8-0.2-3.5-0.9-4.9-1.9c-1.2-1-1.9-2.6-1.8-4.2c0-1.5,0.7-3,1.8-4c1.4-1.2,3.1-1.7,4.9-1.7c1.5-0.1,3,0.3,4.3,1.2
	c1.1,0.8,1.9,1.9,2.2,3.2l-4.2,1.4c-0.3-1-1.2-1.6-2.3-1.5c-0.5,0-1,0.1-1.4,0.4c-0.3,0.2-0.5,0.6-0.5,1c0,0.8,0.7,1.4,2.2,1.6
	c4.5,0.7,6.8,2.7,6.8,6c0,1.7-0.7,3.3-1.9,4.5C265.4,33.8,263.5,34.5,261.6,34.3L261.6,34.3z M284.6,34.1H281
	c-1.9,0.1-3.7-0.5-5.1-1.7c-1.3-1.3-1.9-3.1-1.8-4.9v-7.9H271v-3.8h0.1c1.1,0,2.2-0.5,3-1.4c0.8-1,1.3-2.2,1.2-3.5v-0.1h3.9v4.4h5.3
	v4.3h-5.3v7.2c0,1.8,0.9,2.7,2.8,2.7h2.5L284.6,34.1z"/>
<path class="st0" d="M147.1,74.9c-3.9,0.1-7.7-1.4-10.5-4.2c-2.8-2.7-4.3-6.5-4.2-10.4c-0.1-3.9,1.5-7.6,4.2-10.4
	c2.8-2.8,6.6-4.3,10.5-4.2c2.6-0.1,5.2,0.6,7.5,1.8c2.1,1.2,3.9,3,5.2,5.1l-5,2.8c-1.5-2.8-4.5-4.4-7.7-4.2c-2.3,0-4.6,0.9-6.2,2.6
	c-3.4,3.6-3.4,9.2,0,12.8c1.6,1.7,3.9,2.6,6.2,2.6c1.6,0,3.1-0.4,4.5-1.1c1.3-0.7,2.4-1.8,3.1-3.1l5,2.8c-1.3,2.1-3.1,3.9-5.3,5.1
	C152.2,74.3,149.7,74.9,147.1,74.9L147.1,74.9z M168.9,74.4h-5V46.2h5v10.9c1.3-1.1,2.9-1.7,4.6-1.7c2-0.1,3.9,0.7,5.2,2.1
	c1.4,1.4,2.1,3.2,2.1,5.2v11.8h-5.1V63.7c0-1-0.3-1.9-0.9-2.6c-0.7-0.7-1.6-1.1-2.5-1c-1,0-1.9,0.4-2.5,1.1c-0.7,0.8-1,1.8-1,2.8
	L168.9,74.4L168.9,74.4z M192.1,74.9c-1.9,0.1-3.7-0.5-5.2-1.8c-1.3-1.1-2-2.7-2-4.3c0-1.5,0.6-2.9,1.7-3.9c1.3-1,2.9-1.5,4.5-1.5h4
	c1,0,1.6-0.5,1.6-1.4c-0.1-0.6-0.4-1.2-0.9-1.5c-0.8-0.5-1.7-0.8-2.6-0.7c-1.7-0.1-3.3,0.9-4,2.5l-3.6-2.4c0.6-1.4,1.7-2.5,2.9-3.3
	c1.4-0.9,3.1-1.3,4.7-1.3c2.3-0.1,4.6,0.7,6.2,2.3c1.4,1.5,2.2,3.4,2.2,5.5v11.3H197v-1.3C195.7,74.4,193.9,75.1,192.1,74.9
	L192.1,74.9z M192.8,70.8c1.1,0.1,2.1-0.3,2.9-1c0.7-0.6,1.1-1.6,1.1-2.5v-0.2h-4.6c-0.5,0-1,0.2-1.4,0.5c-0.7,0.7-0.7,1.8-0.1,2.5
	c0.1,0.1,0.1,0.1,0.2,0.2C191.4,70.7,192.1,70.9,192.8,70.8L192.8,70.8z M211.6,74.4h-5V55.9h4.8v1.5c1.2-1.4,3-2.1,4.9-1.9
	c2-0.1,3.9,0.7,5.2,2.1c1.4,1.4,2.1,3.2,2.1,5.2v11.8h-5.1V63.7c0-1-0.3-1.9-0.9-2.6c-0.7-0.7-1.6-1.1-2.5-1c-0.9,0-1.9,0.3-2.5,1
	c-0.7,0.8-1,1.8-1,2.8L211.6,74.4L211.6,74.4z M242.4,56.9v-1h5v18.7c0.1,2.6-0.9,5.1-2.8,6.9c-2,1.8-4.6,2.8-7.4,2.7
	c-1.8,0-3.6-0.4-5.1-1.2c-1.4-0.8-2.6-1.9-3.4-3.3l3.9-2.8c0.4,0.8,1.1,1.4,1.9,1.8c0.8,0.5,1.8,0.7,2.8,0.7
	c1.4,0.1,2.8-0.4,3.8-1.4c0.9-0.9,1.4-2.1,1.4-3.4v-1.2c-1.6,1-3.4,1.5-5.2,1.5c-5.4,0.1-9.8-4.2-9.9-9.6c0-2.6,1-5.2,2.9-7
	c1.8-1.9,4.4-3,7-2.9C239,55.4,240.8,55.9,242.4,56.9L242.4,56.9z M237.5,70.1c2.7,0,4.8-2.2,4.8-4.8c0-2.7-2.2-4.8-4.8-4.8
	c-2.7,0-4.8,2.2-4.8,4.8c0,1.3,0.5,2.5,1.4,3.4C234.9,69.6,236.2,70.1,237.5,70.1L237.5,70.1z M261.4,74.9c-2.7,0.1-5.4-0.9-7.3-2.8
	c-3.8-3.8-3.8-10,0-13.8c1.9-1.9,4.5-2.9,7.3-2.8c2.7-0.1,5.4,1,7.2,3c1.7,1.9,2.6,4.4,2.6,7c0,0.4,0,0.8,0,1.2h-14.5
	c0.2,1.1,0.8,2,1.7,2.6c0.9,0.6,2,1,3.1,1c1.8,0.1,3.4-0.8,4.4-2.3l4,2.8c-0.9,1.3-2.1,2.3-3.5,3C264.7,74.5,263,74.9,261.4,74.9
	L261.4,74.9z M256.7,63.2h9.2c-0.3-0.9-0.9-1.7-1.6-2.3c-1.8-1.3-4.1-1.3-5.9,0C257.5,61.5,257,62.3,256.7,63.2L256.7,63.2z
	 M280.1,74.4h-5V55.9h4.8v1.5c1.2-1.3,3-2.1,4.8-1.9c2.1-0.1,4.2,0.9,5.5,2.6c1.4-1.8,3.5-2.7,5.8-2.6c2.1-0.1,4.1,0.7,5.6,2.1
	c1.5,1.3,2.3,3.2,2.2,5.2v11.8h-5V63.7c0-0.9-0.3-1.9-0.9-2.6c-0.6-0.7-1.6-1.1-2.5-1c-1,0-1.9,0.4-2.5,1.1c-0.7,0.8-1,1.8-1,2.8
	v10.5h-5V63.7c0-0.9-0.3-1.9-0.9-2.6c-0.6-0.7-1.5-1.1-2.4-1c-0.9,0-1.9,0.4-2.5,1.1c-0.7,0.8-1,1.8-1,2.8L280.1,74.4L280.1,74.4z
	 M314.9,74.9c-1.9,0.1-3.7-0.5-5.2-1.8c-1.3-1.1-2-2.7-2-4.3c0-1.5,0.6-2.9,1.7-3.9c1.3-1,2.9-1.6,4.5-1.5h4c1,0,1.6-0.5,1.6-1.4
	c-0.1-0.6-0.4-1.2-1-1.5c-0.8-0.5-1.7-0.8-2.6-0.7c-1.7-0.1-3.3,0.9-4,2.5l-3.6-2.4c0.6-1.4,1.7-2.5,3-3.3c1.4-0.9,3.1-1.3,4.7-1.3
	c2.3-0.1,4.6,0.7,6.2,2.3c1.4,1.5,2.2,3.4,2.2,5.5v11.3h-4.7v-1.3C318.5,74.4,316.7,75.1,314.9,74.9L314.9,74.9z M315.6,70.8
	c1.1,0.1,2.1-0.3,2.9-1c0.7-0.6,1.1-1.6,1.1-2.5v-0.2h-4.6c-0.5,0-1,0.2-1.4,0.5c-0.4,0.3-0.6,0.8-0.5,1.3c0,0.6,0.3,1.1,0.7,1.4
	C314.2,70.7,314.9,70.9,315.6,70.8L315.6,70.8z M339.2,64.1l8.1,10.4H341l-6.6-8.6v8.6h-5V46.2h5v16.3l5.6-6.6h6.5L339.2,64.1
	L339.2,64.1z M357.2,74.9c1.7,0,3.3-0.4,4.8-1.1c1.4-0.7,2.6-1.7,3.5-3l-4-2.8c-0.9,1.5-2.6,2.4-4.4,2.3c-1.1,0-2.2-0.4-3.1-1
	c-0.9-0.6-1.5-1.6-1.7-2.6h14.5c0-0.4,0-0.8,0-1.2c0-2.6-0.9-5.1-2.6-7c-1.8-2-4.4-3.1-7.2-3c-2.7-0.1-5.3,0.9-7.3,2.8
	c-3.8,3.8-3.8,10,0,13.8C351.8,74,354.4,75,357.2,74.9L357.2,74.9z M352.5,63.2c0.3-0.9,0.9-1.8,1.6-2.3c0.9-0.6,1.9-0.9,3-0.9
	c1.1,0,2.1,0.4,2.9,1c0.8,0.6,1.4,1.4,1.7,2.3L352.5,63.2z M375.9,74.4h-5V55.9h4.7V58c1-1.6,2.7-2.5,5.1-2.5h1.4v4.8h-2
	c-1.2,0-2.3,0.4-3.1,1.2c-0.8,0.9-1.2,2.1-1.1,3.3L375.9,74.4L375.9,74.4z M391.3,74.9c-1.7,0.1-3.3-0.4-4.6-1.3
	c-1.1-0.8-2-2-2.4-3.4l4.4-1.7c0.3,1.2,1.5,2,2.7,1.9c1.5,0,2.3-0.5,2.3-1.5s-0.7-1.4-2.2-1.7c-1.8-0.2-3.4-0.9-4.9-1.9
	c-1.2-1-1.9-2.6-1.8-4.2c0-1.5,0.7-3,1.8-4c1.4-1.1,3.1-1.7,4.9-1.7c1.5-0.1,3,0.4,4.3,1.2c1.1,0.8,1.9,1.9,2.2,3.1l-4.2,1.4
	c-0.3-1-1.2-1.6-2.3-1.5c-0.5,0-1,0.1-1.4,0.4c-0.3,0.2-0.5,0.6-0.5,1c0,0.8,0.7,1.4,2.2,1.6c4.5,0.7,6.8,2.7,6.8,6
	c0,1.7-0.7,3.3-1.9,4.5C395.2,74.4,393.3,75,391.3,74.9L391.3,74.9z"/>
<path class="st1" d="M157.8,111.2c-6,5.6-15.2,5.6-21.2,0c-5.7-5.7-5.7-15,0-20.7c6-5.6,15.2-5.6,21.2,0c5.7,5.7,5.8,14.9,0.1,20.6
	C157.8,111.1,157.8,111.2,157.8,111.2L157.8,111.2z M140.8,107.2c1.6,1.7,3.9,2.7,6.3,2.6c2.4,0.1,4.7-0.9,6.4-2.6
	c3.4-3.6,3.4-9.2,0-12.8c-3.5-3.5-9.2-3.5-12.7,0C137.4,98,137.4,103.6,140.8,107.2z M176.5,96c5.4,0,9.7,4.4,9.7,9.7
	c0,5.4-4.4,9.7-9.7,9.7c0,0,0,0,0,0c-1.9,0-3.7-0.5-5.2-1.5v10.4h-5V96.4h5v1C172.9,96.5,174.7,96,176.5,96z M176.2,110.7
	c2.7,0,4.9-2.1,4.9-4.8c0-0.1,0-0.1,0-0.2c0.1-2.7-2-4.9-4.7-5c-0.1,0-0.1,0-0.2,0c-2.8,0-5,2.2-5,5S173.4,110.7,176.2,110.7z
	 M199.4,115.5c-2.7,0.1-5.4-0.9-7.3-2.8c-3.8-3.8-3.8-10,0-13.8c1.9-1.9,4.5-2.9,7.2-2.8c2.7-0.1,5.4,1,7.2,3c1.7,1.9,2.6,4.4,2.6,7
	c0,0.4,0,0.8,0,1.2h-14.5c0.2,1.1,0.8,2,1.7,2.6c0.9,0.7,2,1,3.1,1c1.8,0.1,3.4-0.8,4.4-2.3l4,2.8c-0.9,1.3-2.1,2.3-3.6,3.1
	C202.7,115.1,201.1,115.5,199.4,115.5L199.4,115.5z M194.7,103.8h9.2c-0.3-0.9-0.9-1.7-1.6-2.3c-1.8-1.3-4.1-1.3-5.9,0
	C195.6,102.1,195,102.9,194.7,103.8L194.7,103.8z M218.2,115h-5V96.4h4.8v1.5c1.2-1.3,3-2.1,4.8-1.9c2-0.1,3.9,0.7,5.2,2.1
	c1.4,1.3,2.1,3.2,2.1,5.2V115h-5v-10.7c0-1-0.3-1.9-0.9-2.6c-0.6-0.7-1.6-1.1-2.5-1c-1,0-1.9,0.4-2.5,1.1c-0.7,0.8-1,1.8-1,2.8
	L218.2,115L218.2,115z M258.2,86.7v5h-3.5V110h3.5v5h-12.6v-5h3.5V91.8h-3.5v-5L258.2,86.7z M276.5,97.4V86.7h5V115h-5v-1
	c-1.6,1-3.4,1.5-5.2,1.5c-5.4,0-9.7-4.4-9.7-9.7c0-5.4,4.4-9.7,9.7-9.7C273.1,96,274.9,96.5,276.5,97.4L276.5,97.4z M271.6,110.7
	c2.7,0,4.9-2.1,4.9-4.8c0-0.1,0-0.1,0-0.2c0.1-2.7-2-4.9-4.7-5c-0.1,0-0.1,0-0.2,0c-2.8,0-5,2.2-5,5S268.9,110.7,271.6,110.7z
	 M295.5,115.4c-2.7,0.1-5.4-0.9-7.3-2.8c-3.8-3.8-3.8-10,0-13.8c1.9-1.9,4.6-2.9,7.3-2.8c2.7-0.1,5.3,1,7.2,3c1.7,1.9,2.7,4.4,2.6,7
	c0,0.4,0,0.8,0,1.2h-14.4c0.2,1.1,0.8,2,1.7,2.6c0.9,0.7,2,1,3.1,1c1.8,0.1,3.4-0.8,4.4-2.3l4,2.8c-0.9,1.3-2.1,2.4-3.5,3.1
	C298.9,115.1,297.2,115.5,295.5,115.4L295.5,115.4z M290.8,103.8h9.2c-0.3-0.9-0.9-1.7-1.7-2.3c-0.8-0.6-1.9-1-2.9-1
	c-1.1,0-2.1,0.3-3,0.9C291.6,102,291.1,102.8,290.8,103.8L290.8,103.8z M315.5,115.4c-1.9,0.1-3.7-0.5-5.2-1.8c-1.3-1.1-2-2.7-2-4.3
	c0-1.5,0.6-2.9,1.7-3.9c1.3-1,2.9-1.6,4.6-1.5h4c1,0,1.6-0.5,1.6-1.4c-0.1-0.6-0.4-1.2-1-1.5c-0.8-0.5-1.7-0.8-2.6-0.7
	c-1.7-0.1-3.3,0.9-4,2.5l-3.6-2.3c0.6-1.4,1.7-2.5,2.9-3.3c1.4-0.9,3.1-1.3,4.7-1.3c2.3-0.1,4.6,0.7,6.2,2.3
	c1.4,1.5,2.2,3.4,2.2,5.5V115h-4.7v-1.3C319.1,115,317.3,115.6,315.5,115.4L315.5,115.4z M316.2,111.4c1.1,0.1,2.1-0.3,2.9-1
	c0.7-0.6,1.1-1.6,1.1-2.5v-0.2h-4.6c-0.5,0-1,0.2-1.4,0.5c-0.4,0.3-0.6,0.8-0.5,1.3c0,0.6,0.3,1.1,0.7,1.4
	C314.8,111.3,315.5,111.5,316.2,111.4L316.2,111.4z M335.5,115.4c-1.7,0.1-3.3-0.4-4.6-1.3c-1.1-0.8-2-2-2.4-3.4l4.4-1.7
	c0.3,1.2,1.5,2,2.8,1.9c1.5,0,2.3-0.5,2.3-1.5s-0.7-1.5-2.2-1.7c-1.8-0.2-3.5-0.9-4.9-1.9c-1.2-1-1.9-2.6-1.8-4.2c0-1.5,0.7-3,1.8-4
	c2.7-2.1,6.3-2.2,9.2-0.5c1.1,0.8,1.9,1.9,2.2,3.2l-4.2,1.4c-0.3-1-1.2-1.6-2.3-1.5c-0.5,0-1,0.1-1.4,0.4c-0.3,0.2-0.5,0.6-0.5,1
	c0,0.8,0.7,1.4,2.2,1.6c4.5,0.7,6.8,2.7,6.8,6c0,1.7-0.7,3.3-1.9,4.5C339.4,115,337.5,115.6,335.5,115.4L335.5,115.4z"/>
<path class="st1" d="M147.1,156c-3.9,0.1-7.7-1.4-10.5-4.2c-5.7-5.8-5.7-15,0-20.7c2.8-2.8,6.6-4.3,10.5-4.2
	c2.6-0.1,5.2,0.6,7.5,1.8c2.1,1.2,3.9,3,5.2,5.1l-5,2.8c-1.5-2.8-4.5-4.4-7.7-4.2c-2.3,0-4.6,0.9-6.2,2.6c-3.4,3.6-3.4,9.3,0,12.9
	c1.6,1.7,3.9,2.6,6.2,2.6c1.6,0,3.1-0.4,4.5-1.1c1.3-0.7,2.4-1.8,3.1-3.1l5,2.8c-1.3,2.1-3.1,3.9-5.3,5.1
	C152.2,155.4,149.6,156,147.1,156L147.1,156z M168.9,155.6h-5v-28.3h5v10.9c1.3-1.1,2.9-1.7,4.6-1.6c2-0.1,3.9,0.7,5.2,2.1
	c1.4,1.4,2.1,3.2,2.1,5.1v11.8h-5.1v-10.8c0-0.9-0.3-1.9-0.9-2.6c-0.7-0.7-1.6-1.1-2.5-1c-1,0-1.9,0.4-2.5,1.1c-0.7,0.8-1,1.8-1,2.8
	L168.9,155.6L168.9,155.6z M192.1,156c-1.9,0.1-3.7-0.5-5.2-1.8c-1.3-1.1-2-2.7-2-4.3c0-1.5,0.6-2.9,1.7-3.9c1.3-1,2.9-1.6,4.5-1.5
	h4c1,0,1.6-0.5,1.6-1.4c-0.1-0.6-0.4-1.2-0.9-1.5c-0.8-0.5-1.7-0.8-2.6-0.7c-1.7-0.1-3.3,0.9-4,2.5l-3.6-2.3
	c0.6-1.4,1.7-2.5,2.9-3.3c1.4-0.9,3.1-1.3,4.7-1.3c2.3-0.1,4.6,0.7,6.2,2.3c1.4,1.5,2.2,3.4,2.2,5.5v11.2H197v-1.3
	C195.7,155.6,193.9,156.2,192.1,156L192.1,156z M192.8,152c1.1,0.1,2.1-0.3,2.9-1c0.7-0.6,1.1-1.6,1.1-2.5v-0.2h-4.6
	c-0.5,0-1,0.2-1.4,0.5c-0.4,0.3-0.6,0.8-0.6,1.3c0,0.6,0.3,1.1,0.7,1.4C191.4,151.9,192.1,152.1,192.8,152L192.8,152z M214,155.9h-1
	c-4.5,0-6.7-2.3-6.7-7v-21.6h5v21.5c0,1.6,0.9,2.4,2.6,2.4L214,155.9L214,155.9z M225.3,155.9h-1c-4.5,0-6.7-2.3-6.7-7v-21.6h5v21.5
	c0,1.6,0.9,2.4,2.6,2.4L225.3,155.9L225.3,155.9z M237.7,156c-2.7,0.1-5.4-0.9-7.3-2.9c-3.8-3.8-3.8-10,0-13.8
	c1.9-1.9,4.5-2.9,7.3-2.9c2.7-0.1,5.4,1,7.2,3c1.7,1.9,2.6,4.4,2.6,7c0,0.4,0,0.8,0,1.2h-14.6c0.2,1.1,0.8,2,1.7,2.6
	c0.9,0.7,2,1,3.1,1c1.8,0.1,3.4-0.8,4.4-2.3l4,2.8c-0.9,1.3-2.1,2.3-3.6,3.1C241,155.7,239.3,156.1,237.7,156L237.7,156z M233,144.4
	h9.2c-0.3-0.9-0.9-1.7-1.6-2.3c-1.8-1.3-4.1-1.3-5.9,0C233.9,142.6,233.3,143.5,233,144.4L233,144.4z M256.5,155.6h-5V137h4.8v1.5
	c1.2-1.4,3-2.1,4.9-1.9c2-0.1,3.9,0.7,5.2,2.1c1.4,1.4,2.1,3.2,2.1,5.1v11.8h-5v-10.8c0-1-0.3-1.9-0.9-2.6c-0.6-0.7-1.6-1.1-2.5-1
	c-0.9,0-1.9,0.3-2.5,1c-0.7,0.8-1,1.8-1,2.8L256.5,155.6L256.5,155.6z M287.2,138v-1h5v18.8c0.1,2.6-0.9,5.1-2.8,6.9
	c-2,1.8-4.6,2.8-7.3,2.7c-1.8,0-3.6-0.4-5.2-1.3c-1.4-0.8-2.6-1.9-3.4-3.3l3.9-2.8c0.4,0.8,1.1,1.4,1.9,1.8c0.8,0.5,1.8,0.7,2.8,0.7
	c1.4,0.1,2.7-0.4,3.7-1.3c0.9-0.9,1.4-2.1,1.4-3.4v-1.2c-1.6,1-3.4,1.4-5.2,1.4c-5.4,0-9.7-4.4-9.7-9.7c0-5.4,4.4-9.7,9.7-9.7
	c0,0,0,0,0,0C283.8,136.5,285.6,137,287.2,138L287.2,138z M282.3,151.3c2.8,0,5-2.2,5.1-4.9c0-2.8-2.2-5-4.9-5.1
	c-1.4,0-2.7,0.5-3.6,1.5c-1.9,2-1.9,5.1,0.1,7.1C279.8,150.7,281.1,151.2,282.3,151.3z M306.2,156c-2.7,0.1-5.4-0.9-7.3-2.9
	c-3.8-3.8-3.8-10,0-13.8c1.9-1.9,4.5-2.9,7.3-2.9c2.7-0.1,5.4,1,7.2,3c1.7,1.9,2.6,4.4,2.6,7c0,0.4,0,0.8,0,1.2h-14.5
	c0.2,1.1,0.8,2,1.7,2.6c0.9,0.7,2,1,3.1,1c1.8,0.1,3.5-0.8,4.4-2.3l4,2.8c-0.9,1.3-2.1,2.3-3.5,3.1C309.6,155.6,307.9,156,306.2,156
	L306.2,156z M301.6,144.3h9.2c-0.3-0.9-0.9-1.7-1.6-2.3c-1.8-1.3-4.1-1.3-5.9,0C302.4,142.6,301.8,143.4,301.6,144.3L301.6,144.3z"
	/>
<path class="st2" d="M46.1,133.9c-9.3-2-18-6.4-25.1-12.7l0,0l-0.1-0.1l-0.2-0.2l-0.2-0.2l-0.2-0.2l-0.9-0.8l-0.2-0.2l-0.2-0.2
	l-0.2-0.2l-0.2-0.2l-0.1-0.1l-0.9-1l-0.1-0.1l-0.3-0.3l0-0.1l0,0c-8-8.7-12.5-20.1-12.5-32c0-14.5,6.7-27.6,17.4-36.8
	c11.2-2.6,16.4,1.2,26.5,7.9l0,0c-4.2-2-6.7,0.3-6.7,5.6v64.1C41.8,130,42.7,132,46.1,133.9z"/>
<path class="st3" d="M58.4,35.4c21.1,0,39.3,11.2,48.2,27.6c1.4,5.5,1.2,7.4-3.4,11.4L90.5,85.2l-36.3-25l-4.3-2.8
	C38.8,50.1,33.7,45.8,22,48.5C32.2,40,45.1,35.3,58.4,35.4z"/>
<path class="st1" d="M48.3,134.3c-0.7-0.1-1.4-0.3-2.1-0.4c-3.5-1.8-4.3-3.8-4.3-7.8v-17.5c0,5.2,2.4,7.3,6.7,5.4l0,0l1.4-0.9
	l4.3-2.8l36.3-25L103.2,96c4.7,4,4.8,5.9,3.4,11.4v0.2c-8.9,16.4-27.1,27.6-48.2,27.6C55,135.2,51.6,134.9,48.3,134.3L48.3,134.3z"
	/>
</svg>
