<?xml version="1.0" encoding="utf-8"?>
<!-- Generator: Adobe Illustrator 25.0.0, SVG Export Plug-In . SVG Version: 6.00 Build 0)  -->
<svg version="1.1" id="Layer_2" xmlns="http://www.w3.org/2000/svg" xmlns:xlink="http://www.w3.org/1999/xlink" x="0px" y="0px"
	 viewBox="0 0 383.9 137.7" style="enable-background:new 0 0 383.9 137.7;" xml:space="preserve">
<style type="text/css">
	.st0{enable-background:new    ;}
	.st1{fill:#AC43D9;}
	.st2{fill-rule:evenodd;clip-rule:evenodd;fill:#0F98E8;}
	.st3{fill-rule:evenodd;clip-rule:evenodd;fill:#00E32C;}
	.st4{fill-rule:evenodd;clip-rule:evenodd;fill:#AC43D9;}
</style>
<g id="Layer_2_1_">
	<g id="Layer_1-2">
		<g class="st0">
			<path class="st1" d="M158.6,20.2c0-9.9,6.6-16.5,15.9-16.5s15.9,6.6,15.9,16.5c0,9.9-6.6,16.5-15.9,16.5S158.6,30.1,158.6,20.2z
				 M174.7,30.1c5.3,0,8.4-3.7,8.4-10c0-6.3-3.1-10-8.4-10h-0.5c-5.3,0-8.4,3.7-8.4,10c0,6.3,3.1,10,8.4,10H174.7z"/>
			<path class="st1" d="M193.9,44.9V12.5h6.3v2.9h0.5c1.1-2.1,4-3.6,7.4-3.6c6.5,0,11.1,5.3,11.1,12.5s-4.6,12.4-11.1,12.4
				c-3.3,0-5.8-1.3-7-3.6h-0.5v11.7H193.9z M206.8,30.8c3.4,0,5.7-2.6,5.7-6.6s-2.3-6.6-5.7-6.6h-0.5c-3.4,0-5.8,2.6-5.8,6.6
				s2.3,6.6,5.8,6.6H206.8z"/>
			<path class="st1" d="M245.9,26.1h-17.5c0.3,3.2,2.4,5.2,5.3,5.2h0.5c2.5,0,4.4-1.4,5.2-3.7l6.1,1c-1.2,5.1-5.7,8.1-11.7,8.1
				c-7.3,0-12.1-5-12.1-12.6c0-7.3,4.8-12.3,12.1-12.3c6.9,0,12.1,4.6,12.1,11.8V26.1z M233.5,17.2c-2.5,0-4.3,1.5-4.9,4.1h10.2
				c-0.4-2.4-2.2-4.1-4.8-4.1H233.5z"/>
			<path class="st1" d="M249.5,36V12.5h6.3v3.7h0.5c1.4-3.3,4.5-4.3,7.5-4.3c5.7,0,9.2,3.9,9.2,9.9V36h-6.8V22.6
				c0-3.2-2.1-4.7-4.5-4.7h-0.5c-2.7,0-5,1.8-5,6.9V36H249.5z"/>
		</g>
		<g class="st0">
			<path class="st1" d="M160.9,80.9V49.2h7.3v31.7H160.9z"/>
			<path class="st1" d="M172.7,69.1c0-7.2,4.6-12.4,11.1-12.4c3.3,0,5.8,1.3,7,3.6h0.5V49.2h6.8v31.7h-6.3V78h-0.5
				c-1.1,2.1-4,3.6-7.4,3.6C177.3,81.6,172.7,76.3,172.7,69.1z M185.6,75.7c3.4,0,5.8-2.6,5.8-6.6s-2.3-6.6-5.8-6.6h-0.5
				c-3.4,0-5.7,2.6-5.7,6.6s2.3,6.6,5.7,6.6H185.6z"/>
			<path class="st1" d="M226,71h-17.5c0.3,3.2,2.4,5.2,5.3,5.2h0.5c2.5,0,4.4-1.5,5.2-3.7l6.1,1c-1.2,5.1-5.7,8.1-11.7,8.1
				c-7.3,0-12.1-5-12.1-12.6c0-7.3,4.8-12.3,12.1-12.3c6.9,0,12.1,4.6,12.1,11.8V71z M213.6,62.1c-2.5,0-4.3,1.5-4.9,4.1h10.2
				c-0.4-2.4-2.2-4.1-4.8-4.1H213.6z"/>
			<path class="st1" d="M250.3,66.2v14.7H244v-3.4h-0.5c-1.1,2.5-4.3,4.1-7.8,4.1c-4.9,0-8-3-8-7.3c0-4.7,3.4-6.9,8.8-7.7l6.5-0.9
				v-0.4c0-1.9-1.6-3.2-3.9-3.2h-0.5c-2,0-3.9,1-4.4,2.9l-6.1-1c1-4.7,5.3-7.2,11.1-7.2C246.3,56.7,250.3,60,250.3,66.2z M238,76.2
				c3,0,5.1-2,5.1-5.1v-0.7l-5.7,0.7c-1.7,0.2-2.7,1.2-2.7,2.7c0,1.5,1,2.4,2.9,2.4H238z"/>
			<path class="st1" d="M253.5,73.8l6.1-0.7c0.1,2,1.9,3.3,4.4,3.3h0.5c2,0,3.4-0.6,3.4-1.9c0-1-0.9-1.5-2.5-1.9l-4.2-0.9
				c-4.6-1-7.1-4-7.1-7.5c0-4.8,4.2-7.6,10-7.6c6.2,0,9.9,2.8,10,7.6l-6.2,0.5c0-2-2.4-2.9-3.9-2.9h-0.5c-1.6,0-2.7,0.6-2.7,1.8
				c0,1,0.7,1.6,1.9,1.9l4.7,1c4.4,1,7.2,3.6,7.2,7.3c0,4.6-4.3,7.7-10.2,7.7C258,81.6,253.8,78.5,253.5,73.8z"/>
		</g>
		<g class="st0">
			<path class="st1" d="M158.6,110c0-9.9,6.6-16.5,15.9-16.5c7.9,0,13.6,4.3,15,11.6l-6.7,1.5c-0.8-4.3-4.1-6.4-8.2-6.4h-0.5
				c-4.7,0-8.4,3.7-8.4,10s3.7,10,8.4,10h0.5c4.1,0,7.3-2.2,8.2-6.4l6.7,1.4c-1.4,7.3-7.2,11.6-15,11.6
				C165.2,126.5,158.6,119.9,158.6,110z"/>
			<path class="st1" d="M192.7,125.8V94.1h6.8v11.6h0.5c1.3-3.3,4.3-4.1,7.1-4.1c5.7,0,9.2,3.9,9.2,9.9v14.4h-6.8v-13.5
				c0-3.2-2.1-4.7-4.5-4.7h-0.5c-2.7,0-5,1.8-5,6.9v11.2H192.7z"/>
			<path class="st1" d="M242,111.1v14.7h-6.3v-3.4h-0.5c-1.1,2.5-4.3,4.1-7.8,4.1c-4.9,0-8-3-8-7.3c0-4.7,3.4-6.9,8.8-7.7l6.5-0.9
				v-0.4c0-1.9-1.6-3.2-3.9-3.2h-0.5c-2,0-3.9,1-4.4,2.9l-6.1-1c1-4.7,5.3-7.2,11.1-7.2C237.9,101.6,242,104.9,242,111.1z
				 M229.6,121.1c3,0,5.1-2,5.1-5.1v-0.7l-5.7,0.7c-1.7,0.2-2.7,1.2-2.7,2.7c0,1.5,1,2.4,2.9,2.4H229.6z"/>
			<path class="st1" d="M246.9,125.8V94.1h6.8v31.7H246.9z"/>
			<path class="st1" d="M259.2,125.8V94.1h6.8v31.7H259.2z"/>
			<path class="st1" d="M293.9,115.8h-17.5c0.3,3.2,2.4,5.2,5.3,5.2h0.5c2.5,0,4.4-1.5,5.2-3.7l6.1,1c-1.2,5.1-5.7,8.1-11.7,8.1
				c-7.3,0-12.1-5-12.1-12.6c0-7.3,4.8-12.3,12.1-12.3c6.9,0,12.1,4.6,12.1,11.8V115.8z M281.5,107c-2.5,0-4.3,1.5-4.9,4.1h10.2
				c-0.4-2.4-2.2-4.1-4.8-4.1H281.5z"/>
			<path class="st1" d="M297.5,125.8v-23.6h6.3v3.7h0.5c1.4-3.3,4.5-4.3,7.5-4.3c5.7,0,9.2,3.9,9.2,9.9v14.4h-6.8v-13.5
				c0-3.2-2.1-4.7-4.5-4.7h-0.5c-2.7,0-5,1.8-5,6.9v11.2H297.5z"/>
			<path class="st1" d="M325.1,127.9l6.5-0.9c0.5,1.9,2.4,3.1,5.1,3.1h0.5c3.2,0,5.7-2.1,5.7-5.3v-3h-0.5c-1.2,2.3-3.7,3.6-7,3.6
				c-6.5,0-11.1-5.2-11.1-11.9c0-6.7,4.6-11.9,11.1-11.9c3.4,0,6.3,1.5,7.4,3.6h0.5v-2.9h6.3v22.2c0,6.7-5.3,11.1-12.7,11.1
				C330.7,135.6,326.1,132.5,325.1,127.9z M337.2,119.5c3.4,0,5.8-2.6,5.8-6c0-3.4-2.3-6-5.8-6h-0.5c-3.4,0-5.7,2.6-5.7,6
				c0,3.4,2.3,6,5.7,6H337.2z"/>
			<path class="st1" d="M377.5,115.8H360c0.3,3.2,2.4,5.2,5.3,5.2h0.5c2.5,0,4.4-1.5,5.2-3.7l6.1,1c-1.2,5.1-5.7,8.1-11.7,8.1
				c-7.3,0-12.1-5-12.1-12.6c0-7.3,4.8-12.3,12.1-12.3c6.9,0,12.1,4.6,12.1,11.8V115.8z M365.2,107c-2.5,0-4.3,1.5-4.9,4.1h10.2
				c-0.4-2.4-2.2-4.1-4.8-4.1H365.2z"/>
		</g>
	</g>
</g>
<g>
	<path class="st2" d="M54.3,129.5c-11.4-2.4-22-7.8-30.7-15.5l0,0l-0.1-0.1l-0.3-0.3l-0.2-0.2l-0.2-0.2l-1-1l-0.2-0.2l-0.3-0.3
		l-0.2-0.2l-0.3-0.3l-0.1-0.1l-1.1-1.2l-0.1-0.1l-0.3-0.4l-0.1-0.1l0,0C9.1,98.5,3.6,84.6,3.6,70.1c0-17.8,8.2-33.7,21.2-44.9
		c13.7-3.2,20,1.4,32.3,9.7l0,0C52,32.6,49,35.3,49,41.7v78.2C49,124.7,50,127.2,54.3,129.5z"/>
	<path class="st3" d="M69.3,9.2c25.7,0,48,13.7,58.8,33.7c1.8,6.7,1.5,9-4.2,13.9L108.4,70L64.1,39.5l-5.2-3.4
		C45.4,27.1,39.1,22,24.8,25.3C37.3,14.8,53,9.1,69.3,9.2z"/>
	<path class="st4" d="M56.9,130c-0.9-0.2-1.7-0.3-2.6-0.5c-4.2-2.2-5.2-4.7-5.2-9.5V98.5c0,6.4,3,8.9,8.1,6.6l0,0l1.7-1.1l5.2-3.4
		L108.4,70l15.5,13.2c5.7,4.9,5.9,7.2,4.2,13.9v0.3c-10.8,20-33.1,33.6-58.8,33.6C65.1,131.1,61,130.7,56.9,130L56.9,130z"/>
</g>
</svg>
